<?xml version="1.0" encoding="UTF-8" standalone="no"?>
<svg
   xmlns:dc="http://purl.org/dc/elements/1.1/"
   xmlns:cc="http://creativecommons.org/ns#"
   xmlns:rdf="http://www.w3.org/1999/02/22-rdf-syntax-ns#"
   xmlns:svg="http://www.w3.org/2000/svg"
   xmlns="http://www.w3.org/2000/svg"
   viewBox="0 0 3333.3333 3333.3333"
   height="3333.3333"
   width="3333.3333"
   xml:space="preserve"
   id="svg2"
   version="1.1"><metadata
     id="metadata8"><rdf:RDF><cc:Work
         rdf:about=""><dc:format>image/svg+xml</dc:format><dc:type
           rdf:resource="http://purl.org/dc/dcmitype/StillImage" /></cc:Work></rdf:RDF></metadata><defs
     id="defs6" /><g
     transform="matrix(1.3333333,0,0,-1.3333333,0,3333.3333)"
     id="g10"><g
       transform="scale(0.1)"
       id="g12"><g
         transform="scale(1.53374)"
         id="g14"><path
           id="path16"
           style="fill:#ffffff;fill-opacity:1;fill-rule:nonzero;stroke:none"
           d="M 16300,0 H 0 V 16300 H 16300 V 0" /></g><g
         transform="scale(1.2049)"
         id="g18"><path
           id="path20"
           style="fill:#aae0ff;fill-opacity:1;fill-rule:nonzero;stroke:none"
           d="M 16300,4607.45 H 4803.84 V 16059.3 H 16300 V 4607.45" /></g><g
         transform="scale(1.4704)"
         id="g22"><path
           id="path24"
           style="fill:#2d5b98;fill-opacity:1;fill-rule:nonzero;stroke:none"
           d="M 1139.98,1659.82 H 16216.8 c 45.9,0 83.2,37.27 83.2,83.24 v 0 c 0,45.97 -37.3,83.24 -83.2,83.24 H 1139.98 c -45.97,0 -83.24,-37.27 -83.24,-83.24 v 0 c 0,-45.97 37.27,-83.24 83.24,-83.24" /></g><path
         id="path26"
         style="fill:#5896fa;fill-opacity:1;fill-rule:nonzero;stroke:none"
         d="m 7650.05,3655.3 v 0 c -684.14,0 -1238.75,554.6 -1238.75,1238.8 V 6582.8 H 8888.81 V 4894.1 c 0,-684.2 -554.61,-1238.8 -1238.76,-1238.8" /><path
         id="path28"
         style="fill:#0e0e0e;fill-opacity:1;fill-rule:nonzero;stroke:none"
         d="M 6411.3,2685.4 H 6274 v 2621.2 h 137.3 V 2685.4" /><path
         id="path30"
         style="fill:#0e0e0e;fill-opacity:1;fill-rule:nonzero;stroke:none"
         d="m 9026.11,2685.4 h -137.3 v 2621.2 h 137.3 V 2685.4" /><path
         id="path32"
         style="fill:#0e0e0e;fill-opacity:1;fill-rule:nonzero;stroke:none"
         d="m 7975.44,2685.4 h -137.3 v 2621.2 h 137.3 V 2685.4" /><path
         id="path34"
         style="fill:#0e0e0e;fill-opacity:1;fill-rule:nonzero;stroke:none"
         d="m 6274,3518 v 137.3 H 8895.18 V 3518 H 6274" /><path
         id="path36"
         style="fill:#ffca59;fill-opacity:1;fill-rule:nonzero;stroke:none"
         d="m 9579.32,9372.8 c 149.52,-215.4 -151.43,-401 -198.29,-699.5 -46.86,-298.4 295.04,-466.4 -67.57,-857.2 -223.34,-240.7 -411.85,79 -593.38,-289.9 -181.53,-368.9 -38.49,-431.1 -242.54,-563.8 -355.72,-231.4 -899.93,280 -716.9,648.5 183.03,368.5 553.26,335.5 381.97,638.7 -171.29,303.2 -235.01,433.8 60.37,589.6 365.59,192.8 687.75,15.7 717.16,297.8 29.41,282.1 461.41,520.6 659.18,235.8" /><path
         id="path38"
         style="fill:#0e0e0e;fill-opacity:1;fill-rule:nonzero;stroke:none"
         d="m 8016.53,6599.7 -61.54,12.2 C 8243.23,8068.8 9198.82,9089 9208.44,9099.1 l 45.5,-43.2 c -9.5,-10 -952.8,-1017.7 -1237.41,-2456.2" /><path
         id="path40"
         style="fill:#ed5a24;fill-opacity:1;fill-rule:nonzero;stroke:none"
         d="m 4788.16,9911 c -154.56,-315 281.01,-500.1 403.04,-885.7 122.03,-385.5 -327.33,-521.7 231.12,-966 343.95,-273.7 415.94,-102.6 542.39,-714.7 111.33,-538.9 520.8,-26.1 827.01,-342.4 395.1,-408.1 1012.49,487.6 696.19,938.4 -316.31,450.8 -685.43,334.3 -519.73,769.9 165.71,435.7 -31.93,763.9 -454.14,910.7 -522.57,181.6 -710.52,-257 -806.17,110.4 -95.65,367.4 -715.29,596.1 -919.71,179.4" /><path
         id="path42"
         style="fill:#0e0e0e;fill-opacity:1;fill-rule:nonzero;stroke:none"
         d="M 7413.88,6555.7 C 6747.62,8403 5297.02,9545.8 5282.46,9557.1 l 51.53,66.4 C 5348.75,9612 6818.44,8454.2 7492.87,6584.2 l -78.99,-28.5" /><g
         transform="scale(1.36601)"
         id="g44"><path
           id="path46"
           style="fill:none;stroke:#2e77e6;stroke-width:63.91339874;stroke-linecap:butt;stroke-linejoin:miter;stroke-miterlimit:10;stroke-dasharray:95.8701, 95.8701;stroke-dashoffset:0;stroke-opacity:1"
           d="m 10635,12421.5 c 0,-2142 -1736.5,-3878.49 -3878.53,-3878.49 -2142.04,0 -3878.51,1736.49 -3878.51,3878.49 0,2142 1736.47,3878.5 3878.51,3878.5 2142.03,0 3878.53,-1736.5 3878.53,-3878.5 z" /></g><g
         transform="scale(1.12733)"
         id="g48"><path
           id="path50"
           style="fill:#ffffff;fill-opacity:1;fill-rule:nonzero;stroke:none"
           d="m 9376.86,15359.9 c 4.97,36.6 8.43,73.8 8.43,111.8 0,457.5 -370.88,828.3 -828.3,828.3 -343.18,0 -637.6,-208.7 -763.27,-506.1 -102.27,91 -236.63,146.8 -384.34,146.8 -319.66,0 -578.8,-259.1 -578.8,-578.7 h -108 c -307.37,0 -558.85,-251.5 -558.85,-558.9 v 0 c 0,-307.3 251.48,-558.8 558.85,-558.8 h 2613.03 c 307.37,0 558.85,251.5 558.85,558.8 v 0 c 0,293.5 -229.4,535.4 -517.6,556.8" /></g><path
         id="path52"
         style="fill:#5896fa;fill-opacity:1;fill-rule:nonzero;stroke:none"
         d="M 11150.2,10462.4 H 7206.26 c -132.73,0 -240.33,107.6 -240.33,240.3 v 3308.8 c 0,132.7 107.6,240.3 240.33,240.3 h 3943.94 c 132.7,0 240.3,-107.6 240.3,-240.3 v -3308.8 c 0,-132.7 -107.6,-240.3 -240.3,-240.3" /><path
         id="path54"
         style="fill:#ffffff;fill-opacity:1;fill-rule:nonzero;stroke:none"
         d="M 10517.8,11963.7 H 7850.44 c -87.28,0 -158.69,71.5 -158.69,158.7 v 0 c 0,87.3 71.41,158.7 158.69,158.7 h 2667.36 c 87.2,0 158.7,-71.4 158.7,-158.7 v 0 c 0,-87.2 -71.5,-158.7 -158.7,-158.7" /><path
         id="path56"
         style="fill:#ffffff;fill-opacity:1;fill-rule:nonzero;stroke:none"
         d="M 10517.8,11452.6 H 7850.44 c -87.28,0 -158.69,71.4 -158.69,158.7 v 0 c 0,87.3 71.41,158.7 158.69,158.7 h 2667.36 c 87.2,0 158.7,-71.4 158.7,-158.7 v 0 c 0,-87.3 -71.5,-158.7 -158.7,-158.7" /><path
         id="path58"
         style="fill:#80b2ff;fill-opacity:1;fill-rule:nonzero;stroke:none"
         d="m 8348.51,11597.2 c 0,-30.8 -25.02,-55.8 -55.88,-55.8 -30.86,0 -55.87,25 -55.87,55.8 0,30.9 25.01,55.9 55.87,55.9 30.86,0 55.88,-25 55.88,-55.9" /><path
         id="path60"
         style="fill:#80b2ff;fill-opacity:1;fill-rule:nonzero;stroke:none"
         d="m 8540.07,11597.2 c 0,-30.8 -25.02,-55.8 -55.88,-55.8 -30.86,0 -55.87,25 -55.87,55.8 0,30.9 25.01,55.9 55.87,55.9 30.86,0 55.88,-25 55.88,-55.9" /><path
         id="path62"
         style="fill:#80b2ff;fill-opacity:1;fill-rule:nonzero;stroke:none"
         d="m 8731.63,11597.2 c 0,-30.8 -25.02,-55.8 -55.87,-55.8 -30.86,0 -55.88,25 -55.88,55.8 0,30.9 25.02,55.9 55.88,55.9 30.85,0 55.87,-25 55.87,-55.9" /><path
         id="path64"
         style="fill:#80b2ff;fill-opacity:1;fill-rule:nonzero;stroke:none"
         d="m 8923.19,11597.2 c 0,-30.8 -25.02,-55.8 -55.87,-55.8 -30.86,0 -55.87,25 -55.87,55.8 0,30.9 25.01,55.9 55.87,55.9 30.85,0 55.87,-25 55.87,-55.9" /><path
         id="path66"
         style="fill:#80b2ff;fill-opacity:1;fill-rule:nonzero;stroke:none"
         d="m 9114.76,11597.2 c 0,-30.8 -25.02,-55.8 -55.88,-55.8 -30.86,0 -55.87,25 -55.87,55.8 0,30.9 25.01,55.9 55.87,55.9 30.86,0 55.88,-25 55.88,-55.9" /><path
         id="path68"
         style="fill:#80b2ff;fill-opacity:1;fill-rule:nonzero;stroke:none"
         d="m 9306.32,11597.2 c 0,-30.8 -25.02,-55.8 -55.88,-55.8 -30.86,0 -55.87,25 -55.87,55.8 0,30.9 25.01,55.9 55.87,55.9 30.86,0 55.88,-25 55.88,-55.9" /><path
         id="path70"
         style="fill:#80b2ff;fill-opacity:1;fill-rule:nonzero;stroke:none"
         d="m 9497.88,11597.2 c 0,-30.8 -25.02,-55.8 -55.87,-55.8 -30.86,0 -55.88,25 -55.88,55.8 0,30.9 25.02,55.9 55.88,55.9 30.85,0 55.87,-25 55.87,-55.9" /><path
         id="path72"
         style="fill:#80b2ff;fill-opacity:1;fill-rule:nonzero;stroke:none"
         d="m 9689.44,11597.2 c 0,-30.8 -25.02,-55.8 -55.87,-55.8 -30.86,0 -55.87,25 -55.87,55.8 0,30.9 25.01,55.9 55.87,55.9 30.85,0 55.87,-25 55.87,-55.9" /><path
         id="path74"
         style="fill:#80b2ff;fill-opacity:1;fill-rule:nonzero;stroke:none"
         d="m 9881.01,11597.2 c 0,-30.8 -25.02,-55.8 -55.88,-55.8 -30.86,0 -55.87,25 -55.87,55.8 0,30.9 25.01,55.9 55.87,55.9 30.86,0 55.88,-25 55.88,-55.9" /><path
         id="path76"
         style="fill:#ffffff;fill-opacity:1;fill-rule:nonzero;stroke:none"
         d="m 9798.15,13338.4 c 0,-338.7 -274.52,-613.2 -613.15,-613.2 -338.63,0 -613.15,274.5 -613.15,613.2 0,338.6 274.52,613.1 613.15,613.1 338.63,0 613.15,-274.5 613.15,-613.1" /><path
         id="path78"
         style="fill:#005cea;fill-opacity:1;fill-rule:nonzero;stroke:none"
         d="m 9185.88,13363 c 59.85,0 115.13,29.2 150.43,73.7 26.08,32.3 41.44,73.7 41.44,119.8 0,105.9 -85.96,193.4 -191.87,193.4 -107.44,0 -193.41,-87.5 -193.41,-193.4 0,-46.1 15.32,-87.5 41.45,-119.8 35.3,-44.5 90.54,-73.7 151.96,-73.7" /><path
         id="path80"
         style="fill:#005cea;fill-opacity:1;fill-rule:nonzero;stroke:none"
         d="m 9525.73,13018.4 c 0,-122.1 -681.59,-122.1 -681.59,0 l 0.22,142.2 c 26.93,194.5 625.98,202.7 681.5,0 l -0.13,-142.2" /><path
         id="path82"
         style="fill:#5896fa;fill-opacity:1;fill-rule:nonzero;stroke:none"
         d="m 7930.92,11583.9 v -32.5 c 0,-5.9 -5.01,-10 -10.85,-10 -5.84,0 -9.99,4.1 -9.99,10 v 32.5 c -5.85,3.3 -10.02,9.2 -10.02,16.7 0,10.8 9.18,20 20.01,20 10.85,0 20.01,-9.2 20.01,-20 0,-7.5 -4.18,-13.4 -9.16,-16.7 z m -50.81,65.2 c 0,21.6 13.32,41.2 40.18,41.2 26.85,0 40.62,-18.4 40.62,-41.2 v -8.5 h -80.8 z m 102.62,-8.5 v 8.5 c 0,34.4 -28,62.4 -62.44,62.4 -34.44,0 -62.44,-28 -62.44,-62.4 v -8.5 h -9.49 V 11528 c 0,-19.4 144.25,-19.4 144.25,0 v 112.6 h -9.88" /><path
         id="path84"
         style="fill:#5896fa;fill-opacity:1;fill-rule:nonzero;stroke:none"
         d="m 7920.44,12134 c 12.63,0 24.3,6.1 31.75,15.5 5.5,6.8 8.74,15.5 8.74,25.3 0,22.3 -18.14,40.8 -40.49,40.8 -22.67,0 -40.81,-18.5 -40.81,-40.8 0,-9.8 3.24,-18.5 8.75,-25.3 7.45,-9.4 19.1,-15.5 32.06,-15.5" /><path
         id="path86"
         style="fill:#5896fa;fill-opacity:1;fill-rule:nonzero;stroke:none"
         d="m 7992.16,12061.2 c 0,-25.7 -144.57,-25.7 -144.57,0 l 0.78,30 c 5.69,41.1 132.1,42.8 143.82,0 l -0.03,-30" /><path
         id="path88"
         style="fill:#80b2ff;fill-opacity:1;fill-rule:nonzero;stroke:none"
         d="m 8854.74,12075.9 h -584.53 c -25.61,0 -46.57,20.9 -46.57,46.5 v 0 c 0,25.7 20.96,46.6 46.57,46.6 h 584.53 c 25.61,0 46.57,-20.9 46.57,-46.6 v 0 c 0,-25.6 -20.96,-46.5 -46.57,-46.5" /><path
         id="path90"
         style="fill:#80b2ff;fill-opacity:1;fill-rule:nonzero;stroke:none"
         d="m 9625.68,12075.9 h -584.53 c -25.61,0 -46.57,20.9 -46.57,46.5 v 0 c 0,25.7 20.96,46.6 46.57,46.6 h 584.53 c 25.61,0 46.57,-20.9 46.57,-46.6 v 0 c 0,-25.6 -20.96,-46.5 -46.57,-46.5" /><path
         id="path92"
         style="fill:#1251b3;fill-opacity:1;fill-rule:nonzero;stroke:none"
         d="M 9379.61,10957.4 H 8849.9 c -75.1,0 -135.97,60.9 -135.97,135.9 v 0 c 0,75.1 60.87,136 135.97,136 h 529.71 c 75.09,0 135.97,-60.9 135.97,-136 v 0 c 0,-75 -60.88,-135.9 -135.97,-135.9" /><g
         transform="scale(1.01225)"
         id="g94"><path
           id="path96"
           style="fill:#d9ffff;fill-opacity:1;fill-rule:nonzero;stroke:none"
           d="m 2416.87,16293.3 v 0 c 0.03,4.4 0.03,6.3 0.03,6.7 0,-0.8 -0.03,-6.7 -0.03,-6.7" /></g><g
         transform="scale(1.01225)"
         id="g98"><path
           id="path100"
           style="fill:#d9ffff;fill-opacity:1;fill-rule:nonzero;stroke:none"
           d="m 2416.87,16293.3 v 0 c 0.03,4.4 0.03,6.3 0.03,6.7 0,-0.8 -0.03,-6.7 -0.03,-6.7" /></g><g
         transform="scale(1.01154)"
         id="g102"><path
           id="path104"
           style="fill:#d9ffff;fill-opacity:1;fill-rule:nonzero;stroke:none"
           d="m 4996.19,16293.3 c 0,0 0.02,5.9 0.03,6.7 0,-0.4 -0.01,-2.3 -0.03,-6.7 v 0" /></g><g
         transform="scale(1.01154)"
         id="g106"><path
           id="path108"
           style="fill:#d9ffff;fill-opacity:1;fill-rule:nonzero;stroke:none"
           d="m 4996.19,16293.3 c 0,0 0.02,5.9 0.03,6.7 0,-0.4 -0.01,-2.3 -0.03,-6.7 v 0" /></g><g
         transform="scale(1.05506)"
         id="g110"><path
           id="path112"
           style="fill:#ffffff;fill-opacity:1;fill-rule:nonzero;stroke:none"
           d="m 3559.54,16300 c -287.99,-308.5 -747.52,-561.3 -1239.27,-669 -0.14,-32.9 -0.95,-214.8 -4.7,-1053.5 -5,-1118.8 1059.73,-1665.5 1225.03,-1749.4 160.17,73.8 1238.34,619.6 1243.34,1738.4 3.74,838.7 4.55,1020.6 4.71,1053.5 -490.75,112 -943.9,369 -1229.11,680" /></g><g
         transform="scale(1.04197)"
         id="g114"><path
           id="path116"
           style="fill:#296acc;fill-opacity:1;fill-rule:nonzero;stroke:none"
           d="m 3601.26,16300 c -285.55,-262 -681.16,-467.8 -1116.18,-580.1 l -4.3,-959.8 c -1.96,-439.1 172.51,-836.5 518.59,-1180.9 227.4,-226.3 466.48,-366.7 587.79,-429.8 5.22,2.6 10.95,5.7 16.59,8.6 v 3139.8 c -0.83,0.7 -1.69,1.4 -2.49,2.2" /></g><g
         transform="scale(1.04183)"
         id="g118"><path
           id="path120"
           style="fill:#2e77e6;fill-opacity:1;fill-rule:nonzero;stroke:none"
           d="m 3604.24,16300 v -3140.2 c 126.18,65.6 355.49,201.3 575.12,416 349.17,341.4 527.23,737.2 529.17,1176.4 l 4.3,960 c -432.82,115.7 -825.56,324.3 -1108.59,587.8" /></g><path
         id="path122"
         style="fill:#ffffff;fill-opacity:1;fill-rule:nonzero;stroke:none"
         d="m 3808.27,15128.8 v -219.6 c 0,-29.2 -23.79,-53.5 -53.04,-53.5 -29.73,0 -53.53,24.3 -53.53,53.5 v 220.1 c -45.11,20.4 -76.83,66 -76.83,118.5 0,71.9 58.48,129.9 130.36,129.9 71.87,0 129.88,-58 129.88,-129.9 0,-53 -31.24,-98.6 -76.84,-119 z m -579.96,411.5 v -774.8 c 0,-86.3 1053.36,-86.3 1053.36,0 v 774.8 H 3228.31" /><path
         id="path124"
         style="fill:#ffffff;fill-opacity:1;fill-rule:nonzero;stroke:none"
         d="m 4189.47,15595.5 h -106.63 v 52.2 c 0,180.7 -147.07,327.8 -327.8,327.8 -180.77,0 -327.83,-147.1 -327.83,-327.8 v -52.2 h -106.63 v 52.2 c 0,239.5 194.89,434.4 434.46,434.4 239.53,0 434.43,-194.9 434.43,-434.4 v -52.2" /><g
         transform="scale(1.44627)"
         id="g126"><path
           id="path128"
           style="fill:#296acc;fill-opacity:1;fill-rule:nonzero;stroke:none"
           d="M 7987.56,14657.8 H 6671.94 V 16300 h 1315.62 v -1642.2" /></g><g
         transform="scale(1.43123)"
         id="g130"><path
           id="path132"
           style="fill:#ffffff;fill-opacity:1;fill-rule:nonzero;stroke:none"
           d="M 8243.97,14640.5 H 6914.48 V 16300 h 1329.49 v -1659.5" /></g><g
         transform="scale(1.43123)"
         id="g134"><path
           id="path136"
           style="fill:none;stroke:#5896fa;stroke-width:44.30160141;stroke-linecap:butt;stroke-linejoin:miter;stroke-miterlimit:10;stroke-dasharray:none;stroke-opacity:1"
           d="M 8243.97,14640.5 H 6914.48 V 16300 h 1329.49 z" /></g><g
         transform="scale(1.41645)"
         id="g138"><path
           id="path140"
           style="fill:#ffffff;fill-opacity:1;fill-rule:nonzero;stroke:none"
           d="M 8551.15,14623.2 H 7207.86 V 16300 h 1343.29 v -1676.8" /></g><g
         transform="scale(1.41645)"
         id="g142"><path
           id="path144"
           style="fill:none;stroke:#5896fa;stroke-width:44.76369858;stroke-linecap:butt;stroke-linejoin:miter;stroke-miterlimit:10;stroke-dasharray:none;stroke-opacity:1"
           d="M 8551.15,14623.2 H 7207.86 V 16300 h 1343.29 z" /></g><g
         transform="scale(1.40141)"
         id="g146"><path
           id="path148"
           style="fill:#5896fa;fill-opacity:1;fill-rule:nonzero;stroke:none"
           d="M 8805.65,14605.2 H 7447.94 V 16300 h 1357.71 v -1694.8" /></g><g
         transform="scale(1.37749)"
         id="g150"><path
           id="path152"
           style="fill:#005cea;fill-opacity:1;fill-rule:nonzero;stroke:none"
           d="M 8743.69,16187.9 H 8029.2 v 112.1 h 714.49 v -112.1" /></g><g
         transform="scale(1.35522)"
         id="g154"><path
           id="path156"
           style="fill:#005cea;fill-opacity:1;fill-rule:nonzero;stroke:none"
           d="m 8887.34,16186 h -941.03 v 114 h 941.03 v -114" /></g><g
         transform="scale(1.33296)"
         id="g158"><path
           id="path160"
           style="fill:#005cea;fill-opacity:1;fill-rule:nonzero;stroke:none"
           d="m 9035.79,16184.1 h -956.75 v 115.9 h 956.75 v -115.9" /></g><g
         transform="scale(1.31069)"
         id="g162"><path
           id="path164"
           style="fill:#005cea;fill-opacity:1;fill-rule:nonzero;stroke:none"
           d="m 9189.28,16182.1 h -973 v 117.9 h 973 v -117.9" /></g><g
         transform="scale(1.28843)"
         id="g166"><path
           id="path168"
           style="fill:#005cea;fill-opacity:1;fill-rule:nonzero;stroke:none"
           d="m 9348.08,16180.1 h -989.82 v 119.9 h 989.82 v -119.9" /></g><g
         transform="scale(1.3289)"
         id="g170"><path
           id="path172"
           style="fill:#ffffff;fill-opacity:1;fill-rule:nonzero;stroke:none"
           d="m 4625.73,15794.3 c 0,-279.3 -226.42,-505.7 -505.72,-505.7 -279.3,0 -505.72,226.4 -505.72,505.7 0,279.3 226.42,505.7 505.72,505.7 279.3,0 505.72,-226.4 505.72,-505.7" /></g><g
         transform="scale(1.37367)"
         id="g174"><path
           id="path176"
           style="fill:#005cea;fill-opacity:1;fill-rule:nonzero;stroke:none"
           d="m 3733.32,14860.7 c -231.6,139.6 -306.02,440.1 -166.35,671.7 139.44,231.2 439.91,305.6 671.51,166 231.24,-139.5 305.64,-439.9 166.2,-671.2 -139.66,-231.6 -440.13,-306 -671.36,-166.5 z m 1024.33,-46.3 c 63.43,105.2 103.09,218.9 119.89,333.6 l 36.45,-5.4 71.96,-10.5 0.93,-0.1 c 19.42,131.3 12.81,264 -18.91,390.9 l -107.05,-26.6 c -28.73,114.8 -79.33,224.2 -151.46,320.5 l 88.74,66 c -75.92,103.1 -173.37,193.2 -289.71,263.3 l -57.16,-94.8 c -105.57,63.7 -218.88,103.1 -333.61,119.9 l 15.99,109.4 c -131.27,19.4 -264.25,12.4 -390.87,-18.9 l 26.51,-107.1 c -114.77,-28.7 -224.11,-79.3 -320.49,-151.4 l -65.96,88.7 c -103.07,-75.9 -193.17,-173.4 -263.34,-289.7 l 94.81,-57.2 c -63.66,-105.6 -103.11,-218.9 -119.91,-333.6 l -77.34,11.4 -31.64,4.4 -0.35,0.2 c -19.42,-131.3 -12.46,-264.3 18.9,-390.9 l 107.07,26.5 c 28.72,-114.7 79.67,-224.3 151.79,-320.7 l -88.73,-65.9 c 75.92,-103.1 173.02,-193 289.35,-263.1 l 57.17,94.7 c 105.56,-63.6 219.24,-103.3 333.97,-120.1 l -12.56,-84.9 -3.44,-24.4 c 131.27,-19.4 263.89,-12.2 390.51,19.1 l -26.49,107.1 c 114.75,28.7 224.31,79.7 321.05,151.6 l 65.95,-88.8 c 102.72,76.2 192.6,173.3 262.77,289.6 l -94.79,57.2" /></g><g
         transform="scale(1.27591)"
         id="g178"><path
           id="path180"
           style="fill:#1251b3;fill-opacity:1;fill-rule:nonzero;stroke:none"
           d="m 2878.01,15506.1 c -127.85,-84.6 -299.79,-49.6 -384.39,78.3 -84.47,127.6 -49.46,299.6 78.39,384.2 127.65,84.4 299.58,49.4 384.04,-78.2 84.6,-127.9 49.61,-299.8 -78.04,-384.3 z m 272.89,513.2 c -38.42,58.1 -86.99,106 -141.64,142.6 l 11.6,17.3 22.93,34.3 0.26,0.5 c -62.49,41.8 -132.07,70.7 -204.73,85.4 l -12.46,-61.3 c -65.75,13.2 -134.04,13.9 -200.93,0.4 l -12.18,61.5 c -71.25,-13.8 -141.09,-41.8 -205.31,-84.3 l 34.63,-52.3 c -58.28,-38.6 -106.04,-87 -142.55,-141.6 l -52.09,34.8 c -41.88,-62.5 -70.66,-132.3 -85.41,-204.8 l 61.26,-12.4 c -13.21,-65.8 -13.91,-134.1 -0.42,-201 l -61.49,-12.1 c 13.81,-71.3 41.78,-141.1 84.28,-205.4 l 52.33,34.7 c 38.56,-58.3 86.97,-106.1 141.63,-142.6 l -24.65,-36.8 -9.94,-15.1 -0.2,-0.2 c 62.49,-41.8 132.26,-70.6 204.73,-85.4 l 12.47,61.3 c 65.74,-13.2 134.23,-13.8 201.12,-0.3 l 12.19,-61.5 c 71.24,13.8 140.88,41.7 205.11,84.2 l -34.64,52.3 c 58.28,38.5 106.24,87.1 142.75,141.7 l 40.45,-27.1 11.63,-7.6 c 41.89,62.4 70.47,132.1 85.22,204.5 l -61.26,12.5 c 13.21,65.8 13.77,134.3 0.49,201.3 l 61.48,12.2 c -13.99,71.1 -41.84,140.7 -84.33,204.9 l -52.33,-34.6" /></g><g
         transform="scale(1.23466)"
         id="g182"><path
           id="path184"
           style="fill:#005cea;fill-opacity:1;fill-rule:nonzero;stroke:none"
           d="m 12158.4,15448.3 h -1323.3 c -27.9,0 -50.5,22.6 -50.5,50.4 v 750.9 c 0,27.8 22.6,50.4 50.5,50.4 h 1323.3 c 27.8,0 50.4,-22.6 50.4,-50.4 v -750.9 c 0,-27.8 -22.6,-50.4 -50.4,-50.4" /></g><g
         transform="scale(1.22248)"
         id="g186"><path
           id="path188"
           style="fill:#5896fa;fill-opacity:1;fill-rule:nonzero;stroke:none"
           d="m 12330.5,16151.6 h -1438.4 v 148.4 h 1438.4 v -148.4" /></g><g
         transform="scale(1.18253)"
         id="g190"><path
           id="path192"
           style="fill:#d1f5ff;fill-opacity:1;fill-rule:nonzero;stroke:none"
           d="m 11600.7,16300 h -218.6 c -13.9,0 -25.2,-11.3 -25.2,-25.2 v 0 c 0,-13.9 11.3,-25.1 25.2,-25.1 h 218.6 c 13.9,0 25.2,11.2 25.2,25.1 v 0 c 0,13.9 -11.3,25.2 -25.2,25.2" /></g><g
         transform="scale(1.18253)"
         id="g194"><path
           id="path196"
           style="fill:#d1f5ff;fill-opacity:1;fill-rule:nonzero;stroke:none"
           d="m 11937,16300 h -218.7 c -13.9,0 -25.1,-11.3 -25.1,-25.2 v 0 c 0,-13.9 11.2,-25.1 25.1,-25.1 h 218.7 c 13.8,0 25.1,11.2 25.1,25.1 v 0 c 0,13.9 -11.3,25.2 -25.1,25.2" /></g><g
         transform="scale(1.18253)"
         id="g198"><path
           id="path200"
           style="fill:#d1f5ff;fill-opacity:1;fill-rule:nonzero;stroke:none"
           d="m 12273.2,16300 h -218.7 c -13.9,0 -25.1,-11.3 -25.1,-25.2 v 0 c 0,-13.9 11.2,-25.1 25.1,-25.1 h 218.7 c 13.9,0 25.1,11.2 25.1,25.1 v 0 c 0,13.9 -11.2,25.2 -25.1,25.2" /></g><g
         transform="scale(1.18253)"
         id="g202"><path
           id="path204"
           style="fill:#d1f5ff;fill-opacity:1;fill-rule:nonzero;stroke:none"
           d="m 12609.3,16300 h -218.6 c -13.8,0 -25.2,-11.3 -25.2,-25.2 v 0 c 0,-13.9 11.4,-25.1 25.2,-25.1 h 218.6 c 14,0 25.2,11.2 25.2,25.1 v 0 c 0,13.9 -11.2,25.2 -25.2,25.2" /></g><g
         transform="scale(1.23139)"
         id="g206"><path
           id="path208"
           style="fill:#d1f5ff;fill-opacity:1;fill-rule:nonzero;stroke:none"
           d="m 10920.8,16300 v 0 c -14.8,0 -26.7,-11.9 -26.7,-26.7 v -9.3 c 0,-14.8 11.9,-26.7 26.7,-26.7 v 0 c 14.7,0 26.7,11.9 26.7,26.7 v 9.3 c 0,14.8 -12,26.7 -26.7,26.7" /></g><g
         transform="scale(1.23139)"
         id="g210"><path
           id="path212"
           style="fill:#d1f5ff;fill-opacity:1;fill-rule:nonzero;stroke:none"
           d="m 10978.2,16268.6 v 0 c 0,-17.3 14.1,-31.3 31.4,-31.3 h 111.2 c 17.3,0 31.3,14 31.3,31.3 v 0 c 0,17.4 -14,31.4 -31.3,31.4 h -111.2 c -17.3,0 -31.4,-14 -31.4,-31.4" /></g><g
         transform="scale(1.20536)"
         id="g214"><path
           id="path216"
           style="fill:#5896fa;fill-opacity:1;fill-rule:nonzero;stroke:none"
           d="m 11200.5,16300 h 146.6 c 23.4,0 42.5,-19 42.5,-42.6 V 16131 c 0,-23.5 -19.1,-42.5 -42.5,-42.5 h -146.6 c -23.6,0 -42.6,19 -42.6,42.5 v 126.4 c 0,23.6 19,42.6 42.6,42.6" /></g><g
         transform="scale(1.01925)"
         id="g218"><path
           id="path220"
           style="fill:#1251b3;fill-opacity:1;fill-rule:nonzero;stroke:none"
           d="m 14093.1,16085.3 v 117.8 c 0,53.5 -43.4,96.9 -96.8,96.9 h -1031.6 c -53.4,0 -96.9,-43.4 -96.9,-96.9 V 14119.9 H 15536 v 1965.4 h -1442.9" /></g><g
         transform="scale(1.00134)"
         id="g222"><path
           id="path224"
           style="fill:#ffffff;fill-opacity:1;fill-rule:nonzero;stroke:none"
           d="M 15926.8,16300 H 13263.6 L 13098,14372.4 h 2702.6 l 126.2,1927.6" /></g><g
         transform="scale(1.00582)"
         id="g226"><path
           id="path228"
           style="fill:#3383ff;fill-opacity:1;fill-rule:nonzero;stroke:none"
           d="m 15743.5,14308.4 h -2703.8 l 286.8,1895.2 c 8.5,55.4 56.1,96.4 112.2,96.4 h 2474.4 c 69.4,0 122.5,-61.8 112.1,-130.4 l -281.7,-1861.2" /></g><g
         transform="scale(1.03957)"
         id="g230"><path
           id="path232"
           style="fill:#005cea;fill-opacity:1;fill-rule:nonzero;stroke:none"
           d="m 16105.5,15700.6 c 0,-331 -268.2,-599.4 -599.3,-599.4 -331,0 -599.4,268.4 -599.4,599.4 0,331 268.4,599.4 599.4,599.4 331.1,0 599.3,-268.4 599.3,-599.4" /></g><g
         transform="scale(1.04097)"
         id="g234"><path
           id="path236"
           style="fill:#ffffff;fill-opacity:1;fill-rule:nonzero;stroke:none"
           d="m 15485.4,16256.2 c -318.1,0 -576.7,-258.6 -576.7,-576.6 0,-318 258.6,-576.8 576.7,-576.8 318,0 576.6,258.8 576.6,576.8 0,318 -258.6,576.6 -576.6,576.6 z m 0,-1197.1 c -342.2,0 -620.6,278.3 -620.6,620.5 0,342 278.4,620.4 620.6,620.4 342.1,0 620.5,-278.4 620.5,-620.4 0,-342.2 -278.4,-620.5 -620.5,-620.5" /></g><g
         transform="scale(1.00826)"
         id="g238"><path
           id="path240"
           style="fill:#ffffff;fill-opacity:1;fill-rule:nonzero;stroke:none"
           d="m 16017.9,16067.6 v -124 c 0,-16.5 -13.5,-30.2 -30,-30.2 -16.9,0 -30.3,13.7 -30.3,30.2 v 124.3 c -25.4,11.5 -43.4,37.2 -43.4,66.9 0,40.6 33,73.4 73.7,73.4 40.6,0 73.3,-32.8 73.3,-73.4 0,-29.9 -17.7,-55.7 -43.3,-67.2 z m -327.6,232.4 v -437.6 c 0,-48.7 594.8,-48.7 594.8,0 v 437.6 h -594.8" /></g><g
         transform="scale(1.02719)"
         id="g242"><path
           id="path244"
           style="fill:#ffffff;fill-opacity:1;fill-rule:nonzero;stroke:none"
           d="m 15933.9,16030.2 h -59.1 v 28.9 c 0,100.2 -81.5,181.8 -181.8,181.8 -100.1,0 -181.7,-81.6 -181.7,-181.8 v -28.9 h -59.1 v 28.9 c 0,132.8 108.1,240.9 240.8,240.9 132.9,0 240.9,-108.1 240.9,-240.9 v -28.9" /></g><g
         transform="scale(1.33591)"
         id="g246"><path
           id="path248"
           style="fill:#aae0ff;fill-opacity:1;fill-rule:nonzero;stroke:none"
           d="m 10625.4,16121.4 c 0,-98.6 -79.9,-178.5 -178.5,-178.5 -98.7,0 -178.6,79.9 -178.6,178.5 0,98.7 79.9,178.6 178.6,178.6 98.6,0 178.5,-79.9 178.5,-178.6" /></g><g
         transform="scale(1.2813)"
         id="g250"><path
           id="path252"
           style="fill:#aae0ff;fill-opacity:1;fill-rule:nonzero;stroke:none"
           d="m 6189.28,16113.8 c 0,-102.8 -83.35,-186.2 -186.18,-186.2 -102.82,0 -186.18,83.4 -186.18,186.2 0,102.8 83.36,186.2 186.18,186.2 102.83,0 186.18,-83.4 186.18,-186.2" /></g><g
         transform="scale(1.07946)"
         id="g254"><path
           id="path256"
           style="fill:#ffffff;fill-opacity:1;fill-rule:nonzero;stroke:none"
           d="m 14594.1,16184.4 c 0,-63.9 -51.8,-115.6 -115.6,-115.6 -63.8,0 -115.6,51.7 -115.6,115.6 0,63.8 51.8,115.6 115.6,115.6 63.8,0 115.6,-51.8 115.6,-115.6" /></g><g
         transform="scale(1.0651)"
         id="g258"><path
           id="path260"
           style="fill:#aae0ff;fill-opacity:1;fill-rule:nonzero;stroke:none"
           d="m 2528.06,16182.8 c 0,-64.7 -52.46,-117.1 -117.18,-117.1 -64.7,0 -117.16,52.4 -117.16,117.1 0,64.7 52.46,117.2 117.16,117.2 64.72,0 117.18,-52.5 117.18,-117.2" /></g><path
         id="path262"
         style="fill:#aae0ff;fill-opacity:1;fill-rule:nonzero;stroke:none"
         d="m 4758.77,12688.3 c 0,-131.7 -106.8,-238.5 -238.55,-238.5 -131.75,0 -238.55,106.8 -238.55,238.5 0,131.8 106.8,238.6 238.55,238.6 131.75,0 238.55,-106.8 238.55,-238.6" /><g
         transform="scale(1.44417)"
         id="g264"><path
           id="path266"
           style="fill:#aae0ff;fill-opacity:1;fill-rule:nonzero;stroke:none"
           d="m 5780.74,15936.3 v 0 c -15.8,0 -28.62,12.8 -28.62,28.6 v 306.5 c 0,15.8 12.82,28.6 28.62,28.6 v 0 c 15.81,0 28.62,-12.8 28.62,-28.6 v -306.5 c 0,-15.8 -12.81,-28.6 -28.62,-28.6" /></g><g
         transform="scale(1.4306)"
         id="g268"><path
           id="path270"
           style="fill:#aae0ff;fill-opacity:1;fill-rule:nonzero;stroke:none"
           d="m 5652.04,16271.1 v 0 c 0,16 12.93,28.9 28.89,28.9 h 309.33 c 15.96,0 28.89,-12.9 28.89,-28.9 v 0 c 0,-15.9 -12.93,-28.9 -28.89,-28.9 h -309.33 c -15.96,0 -28.89,13 -28.89,28.9" /></g><g
         transform="scale(1.09557)"
         id="g272"><path
           id="path274"
           style="fill:#ffffff;fill-opacity:1;fill-rule:nonzero;stroke:none"
           d="m 11914.3,15820.6 v 0 c -20.9,0 -37.8,16.9 -37.8,37.7 v 404 c 0,20.8 16.9,37.7 37.8,37.7 v 0 c 20.8,0 37.7,-16.9 37.7,-37.7 v -404 c 0,-20.8 -16.9,-37.7 -37.7,-37.7" /></g><g
         transform="scale(1.08199)"
         id="g276"><path
           id="path278"
           style="fill:#ffffff;fill-opacity:1;fill-rule:nonzero;stroke:none"
           d="m 11821.1,16261.8 v 0 c 0,21.1 17.1,38.2 38.1,38.2 h 409 c 21.1,0 38.2,-17.1 38.2,-38.2 v 0 c 0,-21.1 -17.1,-38.2 -38.2,-38.2 h -409 c -21,0 -38.1,17.1 -38.1,38.2" /></g><path
         id="path280"
         style="fill:#ffffff;fill-opacity:1;fill-rule:nonzero;stroke:none"
         d="m 12602.9,11504 v 0 c -22.8,0 -41.3,18.5 -41.3,41.3 v 442.5 c 0,22.8 18.5,41.4 41.3,41.4 v 0 c 22.9,0 41.4,-18.6 41.4,-41.4 v -442.5 c 0,-22.8 -18.5,-41.3 -41.4,-41.3" /><path
         id="path282"
         style="fill:#ffffff;fill-opacity:1;fill-rule:nonzero;stroke:none"
         d="m 12340.3,11766.6 v 0 c 0,22.8 18.5,41.3 41.4,41.3 h 442.5 c 22.8,0 41.3,-18.5 41.3,-41.3 v 0 c 0,-22.9 -18.5,-41.4 -41.3,-41.4 h -442.5 c -22.9,0 -41.4,18.5 -41.4,41.4" /><path
         id="path284"
         style="fill:none;stroke:#ffffff;stroke-width:42.25669861;stroke-linecap:butt;stroke-linejoin:miter;stroke-miterlimit:10;stroke-dasharray:none;stroke-opacity:1"
         d="m 9052.08,14807.1 c 0,-73.1 -59.24,-132.3 -132.31,-132.3 -73.08,0 -132.32,59.2 -132.32,132.3 0,73 59.24,132.3 132.32,132.3 73.07,0 132.31,-59.3 132.31,-132.3 z" /><path
         id="path286"
         style="fill:#0e0e0e;fill-opacity:1;fill-rule:nonzero;stroke:none"
         d="m 12171.7,2686.8 h -517.8 l -53.6,1125.8 h 624.9 l -53.5,-1125.8" /><g
         transform="scale(1.30208)"
         id="g288"><path
           id="path290"
           style="fill:#0e0e0e;fill-opacity:1;fill-rule:nonzero;stroke:none"
           d="m 16258.9,2063.47 h -397.7 l -41.1,864.62 h 479.9 l -41.1,-864.62" /></g><g
         transform="scale(1.32529)"
         id="g292"><path
           id="path294"
           style="fill:#ea7b00;fill-opacity:1;fill-rule:nonzero;stroke:none"
           d="m 15633.6,4351.13 c -43.1,-133.56 -90,-270.66 -141.4,-411.31 H 9006.42 c 0,0 -837.03,3406.88 0,4029.92 21.43,15.92 47.08,31.61 77.04,47.01 1127.34,579.19 5647.04,715.24 6564.64,-29.96 7.1,-5.58 13.6,-11.32 19.8,-17.05 338.1,-310.35 632.1,-1549.32 -34.3,-3618.61" /></g><path
         id="path296"
         style="fill:#982c20;fill-opacity:1;fill-rule:nonzero;stroke:none"
         d="M 15176.8,5221.4 H 11938 l 315.9,3164.5 c 564.7,-245 2068.3,-1538.9 2922.9,-3164.5" /><g
         transform="scale(1.2711)"
         id="g298"><path
           id="path300"
           style="fill:#982c20;fill-opacity:1;fill-rule:nonzero;stroke:none"
           d="m 16300,4536.61 c -44.9,-139.25 -93.9,-282.2 -147.4,-428.84 h -2456.1 c 422.4,783.33 1446.6,1969.94 2441.1,2516.08 L 16300,4536.61" /></g><g
         transform="scale(1.36398)"
         id="g302"><path
           id="path304"
           style="fill:#ea7b00;fill-opacity:1;fill-rule:nonzero;stroke:none"
           d="m 15979.8,6180.61 h -873.7 c -146.9,0 -271,-108.8 -290.3,-254.4 L 14537.2,3819.28 H 9430.96 l -278.6,2106.93 c -19.28,145.6 -143.4,254.4 -290.25,254.4 h -873.7 c -182.33,0 -320.24,-164.74 -288.27,-344.22 l 485.05,-3508.71 h 479.85 v 0 h 7102.46 v 0 h 15.4 l 485.1,3508.71 c 32,179.48 -105.9,344.22 -288.2,344.22" /></g><g
         transform="scale(1.24661)"
         id="g306"><path
           id="path308"
           style="fill:#f2b066;fill-opacity:1;fill-rule:nonzero;stroke:none"
           d="m 15850.1,5438.04 c 449.9,-150.57 362.2,-1103.07 0,-1249.47 h -5457.3 c -407.62,105.17 -442.03,1365.06 145.7,1270.33 3597.4,-676.4 3771.6,402.61 5311.6,-20.86" /></g><g
         transform="scale(1.10429)"
         id="g310"><path
           id="path312"
           style="fill:#007880;fill-opacity:1;fill-rule:nonzero;stroke:none"
           d="m 13197.3,7228.82 c -1.9,-277.65 13,-538.99 42.9,-767.92 h 2888.7 l 171.1,2820.73 c -171.6,1030.27 -641.3,1279.97 -1384.9,1279.97 -665.4,0 -1108.6,-542.8 -1377.9,-1269.46 -232.8,-627.83 -335.8,-1392.66 -339.9,-2063.32" /></g><path
         id="path314"
         style="fill:#005459;fill-opacity:1;fill-rule:nonzero;stroke:none"
         d="M 14573.6,7922.5 15728,7992 c -640.9,209.8 -691.9,1193.5 -40.4,1805.5 l -738.6,463.7 c -257.1,-693.3 -370.8,-1598 -375.4,-2338.7" /><g
         transform="scale(1.14949)"
         id="g316"><path
           id="path318"
           style="fill:#0e0e0e;fill-opacity:1;fill-rule:nonzero;stroke:none"
           d="M 12487.2,5646.94 H 16300 v 1297.53 h -3434.6 l -378.2,-1297.53" /></g><g
         transform="scale(1.20135)"
         id="g320"><path
           id="path322"
           style="fill:#0e0e0e;fill-opacity:1;fill-rule:nonzero;stroke:none"
           d="m 16062.4,5797.14 -979.9,-3560.65 h -764.1 c 241.9,1515.21 187.8,2500.18 415.3,3758.35 199.6,1032.76 1566.3,759.4 1328.7,-197.7" /></g><g
         transform="scale(1.16183)"
         id="g324"><path
           id="path326"
           style="fill:#b15626;fill-opacity:1;fill-rule:nonzero;stroke:none"
           d="m 15311.8,2312.56 c 0,2.41 -0.2,4.82 -0.2,7.32 0,272.93 221.3,494.13 494.3,494.13 272.9,0 494.1,-221.2 494.1,-494.13 0,-2.5 -0.1,-4.91 -0.2,-7.32 h -988" /></g><g
         transform="scale(1.13339)"
         id="g328"><path
           id="path330"
           style="fill:#b15626;fill-opacity:1;fill-rule:nonzero;stroke:none"
           d="m 16300,2875.18 -184.1,56.28 c -121.5,239.11 -640,209.55 -567.7,-81.52 -203.5,-30.26 -310.4,71.03 -310.4,71.03 l -60.9,-550.39 h 1098.3 l 24.8,504.6" /></g><path
         id="path332"
         style="fill:#0e0e0e;fill-opacity:1;fill-rule:nonzero;stroke:none"
         d="m 14127.4,6964.4 1177.3,-4277.6 h 917.9 C 15932,4507.1 15997.1,5690.4 15723.8,7201.9 15484,8442.6 13842,8114.2 14127.4,6964.4" /><path
         id="path334"
         style="fill:#b15626;fill-opacity:1;fill-rule:nonzero;stroke:none"
         d="m 15634.4,2686.8 c 0,2.8 0.2,5.6 0.2,8.5 0,317.1 -257.1,574.1 -574.2,574.1 -317.1,0 -574.2,-257 -574.2,-574.1 0,-2.9 0.2,-5.7 0.3,-8.5 h 1147.9" /><path
         id="path336"
         style="fill:#b15626;fill-opacity:1;fill-rule:nonzero;stroke:none"
         d="m 14949.7,3258.7 208.7,63.8 c 137.8,271 725.3,237.5 643.5,-92.4 230.5,-34.3 351.8,80.5 351.8,80.5 l 68.9,-623.8 h -1244.8 l -28.1,571.9" /><g
         transform="scale(1.01048)"
         id="g338"><path
           id="path340"
           style="fill:#007880;fill-opacity:1;fill-rule:nonzero;stroke:none"
           d="m 15813.2,11442.9 c 426.1,-258.6 486.8,-1026.4 268.4,-1332.3 l -1215.8,-905.71 1237.9,-637.42 -201.1,-658.4 c 0,0 -1292.1,105.2 -1924.5,753.9 -607.2,622.87 873.2,2452.53 1835.1,2779.93" /></g><g
         transform="scale(1.17844)"
         id="g342"><path
           id="path344"
           style="fill:#007880;fill-opacity:1;fill-rule:nonzero;stroke:none"
           d="m 14300.6,8813.25 c -312.5,392.46 -96.7,998.78 301.7,980.95 1297.3,-456.7 1697.7,-1724.73 1286.7,-2293.96 -352.1,-487.67 -1900.9,-675.46 -1900.9,-675.46 v 533.92 l 1076.1,232.51 c 0,0 -554.9,859.7 -763.6,1222.04" /></g><g
         transform="scale(1.0276)"
         id="g346"><path
           id="path348"
           style="fill:#f7a594;fill-opacity:1;fill-rule:nonzero;stroke:none"
           d="m 15096.1,7981.89 c -23,205.04 97,461.46 405.5,517.42 539.1,97.9 734.2,-197.84 785.2,-409.21 13.2,-55.08 -36.9,-113.37 -83.1,-108.21 -46.4,5.06 -78.9,31.24 -86.8,73.18 -9.6,50.51 -36.3,112.98 -94.1,145.58 55.7,-109.18 32.5,-218.76 -119.4,-218.76 h -807.3" /></g><g
         transform="scale(1.06084)"
         id="g350"><path
           id="path352"
           style="fill:#99c1ff;fill-opacity:1;fill-rule:nonzero;stroke:none"
           d="m 15802,7732.26 410.9,2060.26 h 87.1 c -27.8,-141.87 -432,-2203.35 -444.7,-2267.73 -107.7,0 -1096.9,0 -1231.3,0 l -134.5,207.47 H 15802" /></g><g
         transform="scale(1.25983)"
         id="g354"><path
           id="path356"
           style="fill:#ffffff;fill-opacity:1;fill-rule:nonzero;stroke:none"
           d="M 13725.4,8245.81 H 16300 L 15919.2,6336.26 H 13351 l 374.4,1909.55" /></g><g
         transform="scale(1.07654)"
         id="g358"><path
           id="path360"
           style="fill:#f7a594;fill-opacity:1;fill-rule:nonzero;stroke:none"
           d="m 15183.8,10595.3 c 0,-231 692.5,-384.3 918.9,-141.4 34.3,36.5 57.8,81.6 66.9,137 l 130.4,585.1 -827.1,311.8 -24.6,-76.4 -264.5,-816.1" /></g><g
         transform="scale(1.07654)"
         id="g362"><path
           id="path364"
           style="fill:#f4856d;fill-opacity:1;fill-rule:nonzero;stroke:none"
           d="m 16169.6,10590.9 130.4,585.1 -782.5,210.7 c -202.5,-602.8 520.3,-1084.4 652.1,-795.8" /></g><g
         transform="scale(1.13582)"
         id="g366"><path
           id="path368"
           style="fill:#f7a594;fill-opacity:1;fill-rule:nonzero;stroke:none"
           d="m 14607.5,11101.4 c -41.3,-545.1 389.5,-1025.1 750.9,-1049.5 361.4,-24.3 859,379.4 900.3,924.4 41.3,545.1 -294.9,1015 -750.9,1049.5 -456,34.5 -859,-379.4 -900.3,-924.4" /></g><g
         transform="scale(1.16726)"
         id="g370"><path
           id="path372"
           style="fill:#0e0e0e;fill-opacity:1;fill-rule:nonzero;stroke:none"
           d="m 14802,11661.7 c 486.3,308 754,18.3 996.2,-288.9 169.9,-215.5 290.3,-370.4 501.8,-402.8 -406.8,-513.2 -1220.5,-174.7 -1476.8,339.5 -25.3,-292.7 -370.3,-535.1 -609.2,-507.2 -77.4,325.7 148.2,984.2 588,859.4" /></g><g
         transform="scale(1.03968)"
         id="g374"><path
           id="path376"
           style="fill:#f7a594;fill-opacity:1;fill-rule:nonzero;stroke:none"
           d="m 15824.7,12120 c 0,-131.3 106.4,-237.7 237.6,-237.7 131.3,0 237.7,106.4 237.7,237.7 0,131.3 -106.4,237.6 -237.7,237.6 -131.2,0 -237.6,-106.3 -237.6,-237.6" /></g></g></g></svg>