<svg xmlns="http://www.w3.org/2000/svg" viewBox="0 0 500 500"><g id="freepik--Shadow--inject-2"><ellipse id="freepik--path--inject-2" cx="250" cy="416.24" rx="193.89" ry="11.32" style="fill:#f5f5f5"></ellipse></g><g id="freepik--Character--inject-2"><path d="M222.45,304.84c1.39-22.4-1.16-63.13,40.95-57.73,45.13,5.77,32.22,58.55,32.22,58.55Z" style="fill:#263238"></path><circle cx="251.51" cy="273" r="18.38" style="fill:#fff"></circle><path d="M253.93,254.65c-8.71-1.48-18,4.93-18.93,11.43l34.51,3.18C268.29,261.85,260.83,255.83,253.93,254.65Z" style="fill:#263238"></path><path d="M265.58,272.54c-.25,4.81-2.87,8.58-5.85,8.42s-5.2-4.17-5-9,2.87-8.58,5.85-8.42S265.82,267.74,265.58,272.54Z" style="fill:#263238"></path><path d="M251.51,292.38A19.38,19.38,0,1,1,270.89,273,19.4,19.4,0,0,1,251.51,292.38Zm0-36.75A17.38,17.38,0,1,0,268.89,273,17.39,17.39,0,0,0,251.51,255.63Z" style="fill:#407BFF"></path><path d="M290.49,304.28l-.12,0a.49.49,0,0,1-.37-.6c0-.13,3.22-13.69-.09-27.4a.5.5,0,1,1,1-.24c3.37,14,.12,27.74.09,27.87A.5.5,0,0,1,290.49,304.28Z" style="fill:#fff;opacity:0.30000000000000004"></path><path d="M287.7,268.76a.52.52,0,0,1-.46-.29,34.93,34.93,0,0,0-4.74-7.66.5.5,0,0,1,.07-.7.5.5,0,0,1,.71.07,36.47,36.47,0,0,1,4.87,7.87.49.49,0,0,1-.24.66A.54.54,0,0,1,287.7,268.76Z" style="fill:#fff;opacity:0.30000000000000004"></path><path d="M128.73,409.92h-.37a5,5,0,1,1,.28-10h.09c2.89,0,9.84-3.51,24.38-26.43a5,5,0,0,1,7.51-1.09,207.46,207.46,0,0,0,37.14,25.48,5,5,0,1,1-4.52,8.91,212.75,212.75,0,0,1-34.8-23.14C146.25,402,137.21,409.92,128.73,409.92Z" style="fill:#263238"></path><path d="M159.67,371.5l-.43,0a3,3,0,0,1-2.54-3.39c.71-5-.17-23.63-6.48-38.13a3,3,0,0,1,1.06-3.68c13.7-9.33,42.88-10.45,44.12-10.49a3,3,0,1,1,.2,6c-.27,0-25.78,1-38.88,8.2,5.58,14.44,6.85,32.43,5.92,38.94A3,3,0,0,1,159.67,371.5Z" style="fill:#263238"></path><path d="M164.71,367.62c-2-4.71-11-4.18-16.27-.14-2.82,2.15-6.64,8.64-7,11a3.54,3.54,0,0,0,4,4.24c3.45-.3,8.18-5.31,8.18-5.31-3.15,3.09.92,5.27,7,.8C163.94,375.72,166.94,372.89,164.71,367.62Z" style="fill:#407BFF"></path><path d="M336.71,306.16a.32.32,0,0,1-.14,0,.49.49,0,0,1-.34-.62c1.33-4.64,2.78-7.47,4.69-9a5.18,5.18,0,0,1,.16-3.26,6.45,6.45,0,0,1,2.36-3,2.54,2.54,0,0,1-.59-2.38,6.18,6.18,0,0,1,2.14-3.16,2.24,2.24,0,0,1-.57-1.51c0-3,5.51-7.52,11.76-8.38a.5.5,0,0,1,.14,1c-5.94.81-10.92,5.11-10.9,7.38a1.31,1.31,0,0,0,.36.91,12.24,12.24,0,0,1,9.28-1.87c3.07.59,4.32,1.24,4.18,2.17-.28,1.75-6.81,2.12-11.19,1.6a6.18,6.18,0,0,1-2.25-.65,5.38,5.38,0,0,0-2,2.73,1.57,1.57,0,0,0,.49,1.64c1.86-1,4.47-1.36,7.92-.6,4.53,1,4.7,1.55,4.81,1.88a.67.67,0,0,1-.17.67c-.95,1-7.9.53-11.39-.33a4.91,4.91,0,0,1-1.21-.45,5.45,5.45,0,0,0-2.26,2.71,4.23,4.23,0,0,0-.23,2.3,5.77,5.77,0,0,1,.55-.29c2.07-1,4.57-.82,7.66.5,2,.87,3,1.65,3.1,2.44a1.12,1.12,0,0,1-.57,1c-1.53,1-6.87.86-9.65-.62a4,4,0,0,1-1.54-1.49c-1.63,1.5-2.95,4.17-4.15,8.36A.51.51,0,0,1,336.71,306.16Zm5.42-9.33a3,3,0,0,0,1.22,1.22c2.26,1.2,6.7,1.47,8.36.8.34-.14.39-.25.39-.25s-.05-.56-2.5-1.61c-2.8-1.2-5-1.37-6.83-.52A5.79,5.79,0,0,0,342.13,296.83Zm3.34-6.57.25.07a33.09,33.09,0,0,0,9.94.75,21.7,21.7,0,0,0-3.64-1A11.38,11.38,0,0,0,345.47,290.26Zm1.26-5.62a5.92,5.92,0,0,0,1.43.32c5,.59,9.39-.1,10-.73-.17-.15-.84-.58-3.32-1.05A11.25,11.25,0,0,0,346.73,284.64Z" style="fill:#263238"></path><path d="M206.53,408.25c.66-.21.44-.85-.3-.85H192.69c-25.78-2.73-43.79.93-32.44,1.79s-.8.68-9.09,3.82,61.65,3.93,68,0C225,409.39,197.39,411.18,206.53,408.25Z" style="fill:#263238"></path><polygon points="303.47 412.24 185.67 408.33 180.78 294.11 319.89 297.22 303.47 412.24" style="fill:#407BFF"></polygon><path d="M222.45,410.05a.5.5,0,0,1-.5-.46l-9.44-114.72a.51.51,0,0,1,.46-.54.52.52,0,0,1,.54.46L223,409.51a.5.5,0,0,1-.46.54Z" style="fill:#263238"></path><polygon points="303.47 412.24 335.13 407.42 345.1 301.21 319.89 297.22 303.47 412.24" style="fill:#407BFF"></polygon><polygon points="303.47 412.24 335.13 407.42 345.1 301.21 319.89 297.22 303.47 412.24" style="opacity:0.2"></polygon><path d="M195.73,386.32l-2.9-67.87a12.27,12.27,0,0,1,12.53-12.79l88.06,2a12.27,12.27,0,0,1,11.87,14L295.53,390A12.27,12.27,0,0,1,283,400.55l-75.39-2.5A12.27,12.27,0,0,1,195.73,386.32Z" style="fill:#263238"></path><path d="M205.25,326.49l13.62.43-.11,3.51-8.53-.27-.08,2.62,7.91.25-.11,3.36-7.91-.26-.1,3.25,8.77.28-.12,3.72-13.87-.44Z" style="fill:#fff"></path><path d="M221.4,343.47l.52-16.45,8.48.27a12.22,12.22,0,0,1,3.59.52,3.81,3.81,0,0,1,2,1.56,4.64,4.64,0,0,1-1.64,6.59,6.16,6.16,0,0,1-1.81.6,5.12,5.12,0,0,1,1.31.64,5.51,5.51,0,0,1,.78.9,6.43,6.43,0,0,1,.68,1l2.31,4.85-5.74-.19-2.56-5.11a3.94,3.94,0,0,0-.88-1.3,2.22,2.22,0,0,0-1.23-.42h-.45l-.21,6.67Zm5.42-9.62,2.14.07a8.63,8.63,0,0,0,1.35-.19,1.35,1.35,0,0,0,.85-.49,1.57,1.57,0,0,0,.35-.94,1.54,1.54,0,0,0-.47-1.24,3.1,3.1,0,0,0-1.88-.49l-2.24-.07Z" style="fill:#fff"></path><path d="M239.28,344l.52-16.45,8.47.27a12.16,12.16,0,0,1,3.59.52,3.77,3.77,0,0,1,2,1.56,4.45,4.45,0,0,1,.68,2.69,4.42,4.42,0,0,1-2.31,3.9,6.27,6.27,0,0,1-1.81.6,5,5,0,0,1,1.3.64,4.84,4.84,0,0,1,.79.89,6.87,6.87,0,0,1,.68,1l2.31,4.84-5.74-.18-2.56-5.11a4,4,0,0,0-.88-1.3,2.08,2.08,0,0,0-1.24-.42l-.44,0-.22,6.68Zm5.41-9.62,2.15.06a7.21,7.21,0,0,0,1.35-.18,1.31,1.31,0,0,0,.84-.49,1.46,1.46,0,0,0,.35-.94,1.52,1.52,0,0,0-.46-1.24,3,3,0,0,0-1.89-.49l-2.23-.07Z" style="fill:#fff"></path><path d="M256.32,336.36a7.79,7.79,0,0,1,8.76-8.25,8.6,8.6,0,0,1,6.26,2.41,8.32,8.32,0,0,1,2,6.25,10.21,10.21,0,0,1-1.12,4.7,7,7,0,0,1-2.9,2.78,9.22,9.22,0,0,1-4.61.88,10.58,10.58,0,0,1-4.58-1,7,7,0,0,1-2.86-2.9A9.21,9.21,0,0,1,256.32,336.36Zm5.08.18a5.56,5.56,0,0,0,.81,3.61,3.52,3.52,0,0,0,5.06.19,6.13,6.13,0,0,0,1-3.8,5.17,5.17,0,0,0-.83-3.43A3.22,3.22,0,0,0,265,332a3.1,3.1,0,0,0-2.51,1A5.56,5.56,0,0,0,261.4,336.54Z" style="fill:#fff"></path><path d="M275.91,345.21l.52-16.46,8.47.27a12.51,12.51,0,0,1,3.59.52,3.87,3.87,0,0,1,2,1.56,4.49,4.49,0,0,1,.68,2.69,4.42,4.42,0,0,1-2.31,3.91,6.61,6.61,0,0,1-1.81.59,5,5,0,0,1,1.3.65,4.84,4.84,0,0,1,.79.89,6.43,6.43,0,0,1,.68,1l2.31,4.85-5.74-.18-2.56-5.12a3.91,3.91,0,0,0-.88-1.29,2.16,2.16,0,0,0-1.24-.43h-.44l-.22,6.68Zm5.41-9.63,2.15.07a7.21,7.21,0,0,0,1.35-.18,1.35,1.35,0,0,0,.84-.49,1.48,1.48,0,0,0,.35-1,1.5,1.5,0,0,0-.46-1.23,3,3,0,0,0-1.89-.49l-2.23-.07Z" style="fill:#fff"></path><path d="M284,373.16a1.32,1.32,0,0,1-1-.43l-8.56-9.37-9.24,8.44a1.31,1.31,0,0,1-1.85-.08l-8.56-9.37-9.24,8.44a1.31,1.31,0,0,1-1.85-.08l-8.57-9.37-9.23,8.44a1.33,1.33,0,0,1-1,.34,1.35,1.35,0,0,1-.91-.43l-8.56-9.36-9.23,8.43a1.32,1.32,0,0,1-1.86-.08,1.3,1.3,0,0,1,.09-1.85l10.2-9.33a1.32,1.32,0,0,1,1.86.08l8.56,9.37,9.23-8.44a1.37,1.37,0,0,1,.95-.34,1.33,1.33,0,0,1,.91.43l8.56,9.37,9.24-8.44a1.3,1.3,0,0,1,1.85.08l8.56,9.37,9.24-8.44a1.31,1.31,0,0,1,1.85.08L285,371a1.32,1.32,0,0,1-1,2.2Z" style="fill:#fff"></path><polygon points="125.75 414.67 119.49 411.68 113.91 384.51 116.94 381.18 125.75 414.67" style="fill:#407BFF"></polygon><polygon points="125.75 414.67 134.06 409.81 126.94 387.43 116.94 381.18 125.75 414.67" style="fill:#407BFF"></polygon><polygon points="125.75 414.67 134.06 409.81 126.94 387.43 116.94 381.18 125.75 414.67" style="opacity:0.2"></polygon><path d="M262,419.61h-.69a5,5,0,0,1,.27-10c7.7.25,24-4.48,33.32-13.52a5,5,0,0,1,2-1.2c15.79-4.74,21.66,4.83,21.9,5.24l-8.6,5.09a1,1,0,0,0,.11.18c-.09-.13-2.33-3-9.45-1.24C289.17,414.82,271.23,419.61,262,419.61Z" style="fill:#263238"></path><polygon points="261.39 426.25 243.18 425.11 241.75 391.53 266.22 392.44 261.39 426.25" style="fill:#407BFF"></polygon><polygon points="261.39 426.25 265.65 422.01 268.29 401.08 266.22 392.44 261.39 426.25" style="fill:#407BFF"></polygon><polygon points="261.39 426.25 265.65 422.01 268.29 401.08 266.22 392.44 261.39 426.25" style="opacity:0.2"></polygon><path d="M366.91,413.54a3,3,0,0,1-1.81-.61c-10.4-7.9-24.45-21.93-29.84-35.46a2.64,2.64,0,0,1-.17-.61c-2.63-15.64-5.14-48.55-5.25-49.94a3,3,0,1,1,6-.45c0,.33,2.57,33.56,5.13,49.07,5.38,13.16,20,26.67,27.78,32.61a3,3,0,0,1-1.82,5.39Z" style="fill:#263238"></path><path d="M380.78,415.05c-2.32,0-4.95-1.05-7.82-3.12a3,3,0,0,1,3.52-4.86c2.48,1.79,3.83,2,4.3,2a3,3,0,0,1,0,6Z" style="fill:#263238"></path><path d="M373.8,411.84c3.21-9.53,16.37-7.65,20.91-6.23a47.77,47.77,0,0,1,11.07,4.8c2.45,1.6,2.49,4.29-.78,5.82-4,1.88-14.16.21-14.16.21,5.24,2.29,0,6-9.21,2.36C378.64,417.62,372.67,415.34,373.8,411.84Z" style="fill:#407BFF"></path><path d="M341.86,331c-1.19,8.1-7.9,14.07-13.36,13.27s-5.68-8-4.49-16.14,3.35-14,8.81-13.2S343.05,322.93,341.86,331Z" style="fill:#263238"></path><circle cx="209.88" cy="297.88" r="0.82" style="fill:#263238"></circle><path d="M218.21,303.78a.82.82,0,1,1-.82-.82A.82.82,0,0,1,218.21,303.78Z" style="fill:#263238"></path><path d="M219.13,400.68a.82.82,0,1,1-.82-.82A.82.82,0,0,1,219.13,400.68Z" style="fill:#263238"></path><path d="M226.64,406.59a.82.82,0,1,1-.82-.82A.82.82,0,0,1,226.64,406.59Z" style="fill:#263238"></path></g><g id="freepik--robot-parts--inject-2"><path d="M82.51,416.42a9.62,9.62,0,0,1-7.33-3.95.5.5,0,1,1,.82-.57c1.87,2.7,6,4.13,7.8,3.28a1.3,1.3,0,0,0,.47-.34,6.05,6.05,0,0,1-3.52-4.48c-.23-1.27-.41-3,.63-3.22,1.44-.32,3.32,3.15,4,5.78a3.78,3.78,0,0,1,.13,1.34,4.26,4.26,0,0,0,1.78.14,1.94,1.94,0,0,0,1.38-.74,5.86,5.86,0,0,1-2.31-4.19c-.38-2.74-.09-3.21.21-3.45a.66.66,0,0,1,.69-.07c1.07.45,2.36,4.33,2.61,6.53a2.66,2.66,0,0,1,0,.69,3.91,3.91,0,0,0,1.35.26,4.29,4.29,0,0,0,2.41-.63c-.14-.09-.27-.19-.4-.29-1-.89-1.46-2.31-1.28-4.33.14-1.57.49-2.43,1.12-2.7a1.13,1.13,0,0,1,1.21.24,6.92,6.92,0,0,1,1.73,5.56,3,3,0,0,1-.51,1.15c1.84.32,4.42-.2,6.65-.75a.5.5,0,0,1,.24,1c-2.71.67-5.63,1.22-7.69.62a5.69,5.69,0,0,1-3.5,1.16,4.83,4.83,0,0,1-1.64-.31,2.8,2.8,0,0,1-2.12,1.27,5.33,5.33,0,0,1-2.24-.19,2.21,2.21,0,0,1-1,.89A4.16,4.16,0,0,1,82.51,416.42Zm-.86-8.28a4.32,4.32,0,0,0,.08,2.05,5.05,5.05,0,0,0,2.84,3.7,3.21,3.21,0,0,0-.12-.7C83.67,410.33,82.17,408.36,81.65,408.14Zm5.57-.87a14.19,14.19,0,0,0,.17,2.06,5.18,5.18,0,0,0,1.52,3.22A15.72,15.72,0,0,0,87.22,407.27Zm6.29-.87h0s-.38.19-.52,1.86.15,2.82.93,3.49a3.06,3.06,0,0,0,.6.38,2.24,2.24,0,0,0,.54-1,6.26,6.26,0,0,0-1.19-4.43C93.66,406.44,93.54,406.4,93.51,406.4Z" style="fill:#263238"></path><polygon points="228.87 423.98 231.58 419.28 228.87 414.58 225.97 414.58 227.61 419.28 225.97 423.98 228.87 423.98" style="fill:#263238"></polygon><path d="M226.16,421.73a2.45,2.45,0,1,1,0-4.89l-4.6-.92-1.23,3.72,2.06,3.14Z" style="fill:#263238"></path><path d="M226.56,414.58h-5.43l-2.71,4.7,2.71,4.7h5.43l2.71-4.7Zm-2.71,7.15a2.45,2.45,0,1,1,2.44-2.45A2.45,2.45,0,0,1,223.85,421.73Z" style="fill:#407BFF"></path><polygon points="417.89 414.26 415.88 410.77 417.89 407.28 420.04 407.28 418.83 410.77 420.04 414.26 417.89 414.26" style="fill:#407BFF"></polygon><path d="M419.9,412.59a1.82,1.82,0,1,0,0-3.63l3.42-.68.91,2.76-1.52,2.33Z" style="fill:#407BFF"></path><path d="M419.61,407.28h4l2,3.49-2,3.49h-4l-2-3.49Zm2,5.31a1.82,1.82,0,1,0-1.81-1.82A1.81,1.81,0,0,0,421.62,412.59Z" style="fill:#263238"></path><path d="M343,418.9h4.52a2.14,2.14,0,0,0,2.13-2.14h0a2.14,2.14,0,0,0-2.13-2.14H343a2.14,2.14,0,0,0-2.14,2.14h0A2.14,2.14,0,0,0,343,418.9Z" style="fill:#263238"></path><path d="M335.73,414.86a4.46,4.46,0,1,1,2,6.18A4.61,4.61,0,0,1,335.73,414.86Z" style="fill:#407BFF"></path><rect x="339.07" y="411.71" width="1.37" height="10.1" transform="translate(469.33 938.61) rotate(-154.76)" style="fill:#263238"></rect></g></svg>